<svg width="24" height="24" viewBox="0 0 24 24" fill="none" xmlns="http://www.w3.org/2000/svg">
  <path
    d="M19 14L18.2929 14.7071L19 15.4142L19.7071 14.7071L19 14ZM14.2929 10.7071L18.2929 14.7071L19.7071 13.2929L15.7071 9.29289L14.2929 10.7071ZM19.7071 14.7071L23.7071 10.7071L22.2929 9.29289L18.2929 13.2929L19.7071 14.7071Z"
    fill="#fff" />
  <path
    d="M15.5 18.0622C14.1655 18.8326 12.6141 19.1412 11.0863 18.9401C9.55856 18.739 8.13986 18.0394 7.05025 16.9497C5.96064 15.8601 5.26102 14.4414 5.05989 12.9137C4.85875 11.3859 5.16735 9.83449 5.93782 8.5C6.70829 7.16551 7.89757 6.12254 9.32122 5.53284C10.7449 4.94315 12.3233 4.83969 13.8117 5.23852C15.3002 5.63734 16.6154 6.51616 17.5535 7.73867C18.4915 8.96118 19 10.4591 19 12"
    stroke="#fff" stroke-width="2" stroke-linecap="round" />
</svg>
