<svg viewBox="0 0 512 512" xmlns="http://www.w3.org/2000/svg"><path d="M0 0h512v512H0z" fill="none"/><path d="M256.002 17.083c-65.166 0-128.485 24.63-175.281 69.017C33.924 130.482 6.712 192.033 6.712 255.921c0 63.888 27.212 125.442 74.009 169.83 46.796 44.388 110.115 69.167 175.281 69.167 65.162 0 128.481-24.779 175.278-69.177 46.796-44.378 74.008-105.923 74.008-169.81 0-63.889-27.212-125.442-74.008-169.831-46.797-44.387-110.116-69.017-175.278-69.017Zm0 94.719c40.568 0 82.189 16.639 110.152 43.162 27.961 26.525 44.559 64.566 44.559 100.962 0 36.395-16.592 74.585-44.553 101.112-27.969 26.522-69.586 43.007-110.154 43.007-40.57 0-82.191-16.474-110.156-42.999-27.96-26.523-44.557-64.714-44.557-101.11 0-36.406 16.592-74.438 44.551-100.961 27.971-26.525 69.586-43.162 110.158-43.162v-.011Z"/></svg>