<svg viewBox="0 0 512 512" xmlns="http://www.w3.org/2000/svg"><path d="M0 0h512v512H0z" fill="none"/><path d="M64.706 2.266c-48.017-.007-78.037 51.97-54.032 93.559a62.317 62.317 0 0 0 10.532 13.533l146.915 146.921L26.131 398.27c-34.209 33.71-19.094 91.813 27.203 104.584a62.392 62.392 0 0 0 61.025-16.35l141.99-141.99 146.915 146.915c33.96 33.96 91.951 18.424 104.381-27.971a62.388 62.388 0 0 0-16.146-60.263L344.584 256.279l141.99-141.99c34.459-33.441 19.797-91.642-26.395-104.768a62.44 62.44 0 0 0-18.956-2.344 62.393 62.393 0 0 0-42.877 18.877L256.349 168.052 109.434 21.136A62.389 62.389 0 0 0 64.7 2.259l.006.007Z"/></svg>