<svg viewBox="0 0 512 512" xmlns="http://www.w3.org/2000/svg">
  <defs></defs>
  <path d="M0 0h512v512H0z" fill="#000" fill-opacity="0"></path>
  <path
    d="M 256.002 17.083 C 190.836 17.083 127.517 41.713 80.721 86.1 C 33.924 130.482 6.712 192.033 6.712 255.921 C 6.712 319.809 33.924 381.363 80.721 425.751 C 127.517 470.139 190.836 494.918 256.002 494.918 C 321.164 494.918 384.483 470.139 431.28 425.741 C 478.076 381.363 505.288 319.818 505.288 255.931 C 505.288 192.042 478.076 130.489 431.28 86.1 C 384.483 41.713 321.164 17.083 256.002 17.083 Z M 256.002 111.802 C 296.57 111.802 338.191 128.441 366.154 154.964 C 394.115 181.489 410.713 219.53 410.713 255.926 C 410.713 292.321 394.121 330.511 366.16 357.038 C 338.191 383.56 296.574 400.045 256.006 400.045 C 215.436 400.045 173.815 383.571 145.85 357.046 C 117.89 330.523 101.293 292.332 101.293 255.936 C 101.293 219.53 117.885 181.498 145.844 154.975 C 173.815 128.45 215.43 111.813 256.002 111.813 L 256.002 111.802 Z"
    fill="#000" fill-opacity="1"></path>
</svg>
