<svg viewBox="0 0 512 512" xmlns="http://www.w3.org/2000/svg">
  <defs></defs>
  <path d="M0 0h512v512H0z" fill="#000" fill-opacity="0"></path>
  <path
    d="M 64.706 2.266 C 16.689 2.259 -13.331 54.236 10.674 95.825 C 13.544 100.802 17.089 105.352 21.206 109.358 L 168.121 256.279 L 26.131 398.27 C -8.078 431.98 7.037 490.083 53.334 502.854 C 75.133 508.868 98.482 502.611 114.359 486.504 L 256.349 344.514 L 403.264 491.429 C 437.224 525.389 495.215 509.853 507.645 463.458 C 513.416 441.928 507.257 418.953 491.499 403.195 L 344.584 256.279 L 486.574 114.289 C 521.033 80.848 506.371 22.647 460.179 9.521 C 454.02 7.774 447.625 6.98 441.223 7.177 C 425.018 7.663 409.64 14.432 398.346 26.054 L 256.349 168.052 L 109.434 21.136 C 97.681 9.061 81.548 2.252 64.7 2.259 L 64.706 2.266 Z"
    fill="#000" fill-opacity="1" style=""></path>
</svg>
