<svg xmlns="http://www.w3.org/2000/svg" viewBox="0 0 455.896 455.896"><style>.prefix__path{fill:#000}@media (prefers-color-scheme:dark){.prefix__path{fill:#fff}}</style><path class="prefix__path" d="M432.458 330.806c8.794 0 15.926-7.132 15.926-15.926s-7.132-15.926-15.926-15.926H331.599V155.62h100.859c8.794 0 15.926-7.132 15.926-15.926s-7.132-15.926-15.926-15.926H331.599V22.909c0-8.796-7.132-15.926-15.926-15.926-8.796 0-15.926 7.13-15.926 15.926v100.859H156.414V22.902c0-8.794-7.132-15.926-15.926-15.926-8.796 0-15.926 7.132-15.926 15.926v100.867H23.695c-8.794 0-15.926 7.132-15.926 15.926s7.132 15.926 15.926 15.926h100.867v143.333H23.695c-8.794 0-15.926 7.132-15.926 15.926s7.132 15.926 15.926 15.926h100.867v100.859c0 8.796 7.13 15.926 15.926 15.926 8.794 0 15.926-7.13 15.926-15.926V330.806h143.333v100.867c0 8.794 7.13 15.926 15.926 15.926 8.794 0 15.926-7.132 15.926-15.926V330.806h100.859zm-276.044-31.852V155.62h143.333v143.333H156.414z"/><path class="prefix__path" d="M27.652 106.497l25.235-25.241 25.235 25.241a15.874 15.874 0 0011.26 4.666c4.075 0 8.149-1.556 11.26-4.666 6.222-6.213 6.222-16.299 0-22.519L75.408 58.735l25.233-25.243c6.222-6.221 6.222-16.306 0-22.519-6.221-6.221-16.299-6.221-22.519 0L52.887 36.214 27.652 10.973c-6.221-6.221-16.299-6.221-22.519 0-6.222 6.213-6.222 16.299 0 22.519l25.233 25.243L5.133 83.977c-6.222 6.221-6.222 16.307 0 22.519a15.874 15.874 0 0011.26 4.666 15.868 15.868 0 0011.259-4.665zm222.944 120.79l25.235-25.243c6.221-6.221 6.221-16.307 0-22.519-6.222-6.222-16.3-6.222-22.521 0l-25.235 25.241-25.235-25.241c-6.221-6.222-16.299-6.222-22.519 0-6.221 6.213-6.221 16.299 0 22.519l25.235 25.243-25.235 25.243c-6.221 6.221-6.221 16.307 0 22.519a15.877 15.877 0 0011.26 4.666c4.075 0 8.149-1.556 11.26-4.666l25.235-25.241 25.235 25.241a15.877 15.877 0 0011.26 4.666 15.88 15.88 0 0011.261-4.666c6.221-6.213 6.221-16.299 0-22.519l-25.236-25.243zM228.072 117.47c32.389 0 58.735-26.346 58.735-58.735C286.807 26.346 260.461 0 228.072 0c-32.389 0-58.735 26.346-58.735 58.735 0 32.388 26.347 58.735 58.735 58.735zm0-85.618c14.822 0 26.883 12.061 26.883 26.883s-12.061 26.883-26.883 26.883-26.883-12.061-26.883-26.883 12.061-26.883 26.883-26.883zm168.623 306.574c-32.389 0-58.735 26.346-58.735 58.735s26.346 58.735 58.735 58.735c32.388 0 58.735-26.346 58.735-58.735s-26.347-58.735-58.735-58.735zm0 85.618c-14.822 0-26.883-12.061-26.883-26.883s12.061-26.883 26.883-26.883 26.883 12.061 26.883 26.883-12.061 26.883-26.883 26.883z"/></svg>